<?xml version="1.0" standalone="no"?>
<!DOCTYPE svg PUBLIC "-//W3C//DTD SVG 20010904//EN"
 "http://www.w3.org/TR/2001/REC-SVG-20010904/DTD/svg10.dtd">
<svg version="1.0" xmlns="http://www.w3.org/2000/svg"
 width="737.000000pt" height="737.000000pt" viewBox="0 0 737.000000 737.000000"
 preserveAspectRatio="xMidYMid meet">
<metadata>
Created by potrace 1.14, written by Peter Selinger 2001-2017
</metadata>
<g transform="translate(0.000000,737.000000) scale(0.100000,-0.100000)"
fill="#000000" stroke="none">
<path d="M3569 6795 c-132 -26 -244 -109 -303 -225 l-32 -64 -62 -13 c-124
-25 -239 -108 -288 -210 -35 -70 -44 -180 -20 -237 21 -50 10 -63 -53 -64
-105 -3 -228 -71 -297 -164 -61 -84 -79 -143 -79 -263 0 -92 3 -106 32 -167
56 -118 166 -201 286 -215 29 -3 55 -11 59 -17 4 -6 8 -41 8 -77 0 -76 14
-165 37 -230 l16 -47 -47 -70 c-55 -83 -110 -200 -133 -284 -13 -47 -22 -62
-42 -70 -133 -52 -173 -86 -223 -193 l-33 -70 0 -370 0 -370 31 -66 c17 -36
48 -82 69 -102 37 -36 164 -107 191 -107 21 0 17 -35 -8 -56 -34 -31 -115
-160 -138 -222 -45 -120 -62 -227 -57 -367 3 -105 9 -145 30 -210 25 -76 92
-197 143 -258 13 -16 24 -35 24 -42 0 -8 -32 -31 -72 -52 -91 -47 -179 -129
-212 -195 -34 -69 -35 -144 -2 -215 40 -84 111 -106 192 -58 138 81 285 69
534 -46 59 -27 114 -49 122 -49 9 0 37 -9 64 -19 135 -54 279 -101 364 -119
190 -41 441 -38 638 8 102 24 269 89 358 138 124 69 240 183 296 291 13 24 28
43 33 43 6 -1 13 -32 17 -70 12 -117 60 -216 132 -273 14 -11 51 -32 83 -47
l58 -27 497 0 c394 0 500 3 510 13 10 10 14 118 18 495 l5 482 170 5 c150 5
175 8 216 28 75 37 123 85 153 151 l27 61 -3 328 -3 327 -34 69 c-41 84 -153
202 -226 237 -48 23 -61 24 -277 27 -172 3 -229 6 -238 17 -7 8 -10 62 -8 151
l3 139 435 5 435 5 65 31 c90 42 134 84 172 162 l33 67 3 310 c4 326 -2 391
-40 473 -34 71 -111 148 -186 184 l-67 33 -835 0 -835 0 -51 -27 c-66 -35
-108 -70 -143 -122 -61 -89 -60 -74 -65 -793 -2 -362 -5 -875 -5 -1141 -1
-380 -4 -483 -13 -480 -7 3 -38 40 -69 84 -34 47 -92 109 -144 154 -73 63 -90
84 -110 132 -12 32 -46 92 -74 133 -28 42 -51 81 -51 88 0 7 27 18 67 25 87
17 183 63 222 107 17 20 43 59 59 88 l27 52 0 385 0 385 -29 62 c-41 90 -110
148 -227 192 -19 7 -32 25 -49 68 -38 95 -95 205 -145 277 l-47 68 27 82 c18
54 28 116 33 186 l7 105 56 6 c116 12 230 91 277 192 33 70 45 142 39 230 -19
278 -305 461 -548 351 -31 -14 -71 -43 -94 -69 l-40 -45 -29 23 c-28 22 -30
29 -34 109 l-4 85 43 25 c137 81 195 213 154 354 -40 139 -187 254 -325 254
-27 0 -48 9 -76 31 -51 41 -127 75 -199 88 -68 13 -61 13 -146 -4z m192 -172
c34 -18 63 -42 78 -65 l23 -37 67 6 c55 5 74 2 113 -17 50 -23 122 -94 115
-113 -2 -6 -26 -18 -53 -26 -47 -13 -75 -23 -242 -86 -40 -15 -86 -38 -102
-51 -23 -20 -32 -23 -55 -14 -49 19 -180 12 -273 -14 -98 -28 -301 -121 -309
-142 -16 -42 -108 13 -119 71 -20 106 112 215 262 215 60 0 54 -7 90 95 10 28
37 71 63 98 98 105 230 136 342 80z m-43 -663 c181 -30 352 -138 470 -297 99
-135 140 -243 149 -398 8 -131 -8 -219 -57 -321 -89 -185 -232 -281 -495 -334
-176 -36 -332 -18 -480 55 -134 65 -262 192 -304 301 -89 235 -55 477 100 706
98 144 249 243 433 283 76 17 105 17 184 5z m-807 -160 c53 -27 102 -95 88
-121 -11 -21 -15 -19 -64 17 -73 55 -173 54 -225 -1 -32 -34 -16 -52 32 -35
44 16 73 9 128 -31 l45 -32 -65 -29 c-72 -32 -100 -54 -100 -76 0 -11 7 -13
28 -8 15 4 49 10 76 13 58 7 56 -6 -5 -37 -21 -11 -60 -41 -86 -65 -26 -25
-54 -45 -63 -45 -24 0 -80 59 -101 105 -12 26 -19 64 -19 106 0 143 105 258
238 259 34 0 67 -7 93 -20z m1646 8 c91 -40 153 -137 153 -242 0 -34 -5 -78
-10 -98 -21 -76 -102 -137 -181 -138 -35 0 -37 2 -49 48 -6 26 -21 62 -32 80
-11 18 -17 36 -14 39 3 4 36 1 71 -6 72 -13 93 -8 74 16 -17 20 -62 42 -120
59 -27 8 -49 19 -49 24 0 11 74 67 99 75 10 3 38 -1 64 -9 65 -19 74 -7 32 43
-48 56 -134 51 -218 -13 -39 -30 -50 -32 -66 -12 -22 27 27 94 94 129 36 19
113 22 152 5z m2216 -1070 c52 -22 116 -88 149 -152 26 -50 34 -133 18 -182
-15 -47 -72 -109 -120 -132 -34 -17 -240 -21 -939 -22 l-114 0 46 -49 46 -49
1 -504 0 -503 -49 -85 c-28 -47 -46 -87 -40 -88 5 -2 39 16 77 41 192 126 285
161 432 162 97 0 109 -2 157 -29 37 -20 61 -44 87 -84 41 -65 65 -150 46 -162
-7 -4 -9 -13 -5 -20 15 -24 -6 -76 -46 -118 -23 -23 -45 -39 -50 -36 -5 3 -9
-1 -9 -9 0 -8 -21 -21 -52 -30 -43 -14 -102 -17 -312 -17 -143 0 -261 -2 -262
-3 -2 -2 4 -16 12 -32 13 -25 15 -65 12 -227 -3 -187 -8 -226 -23 -177 -7 20
-8 20 -25 -7 -9 -16 -15 -33 -12 -38 3 -5 10 4 17 20 12 28 12 28 19 7 4 -13
11 -23 16 -23 11 0 0 -43 -14 -52 -20 -14 -34 -8 -40 16 -3 13 -15 26 -26 29
-14 3 -20 1 -17 -6 3 -7 10 -11 16 -9 6 1 11 -5 11 -13 0 -8 -6 -15 -14 -15
-8 0 -24 -9 -37 -20 -19 -15 -21 -19 -7 -20 11 0 15 -6 11 -20 -5 -20 -23 -28
-23 -10 0 6 -7 10 -15 10 -8 0 -15 5 -15 11 0 5 4 7 10 4 5 -3 7 0 4 9 -6 17
-32 29 -45 20 -5 -3 -9 0 -9 5 0 6 -9 3 -20 -6 -11 -10 -20 -24 -20 -33 0 -13
-1 -13 -10 0 -10 16 -14 8 -10 -25 1 -11 7 -23 12 -26 6 -4 -2 -7 -16 -7 -14
1 -26 5 -26 10 0 5 5 6 10 3 6 -3 10 4 10 15 0 15 -5 20 -15 16 -8 -3 -19 2
-24 12 -10 16 -10 16 -11 -1 0 -10 -4 -15 -10 -12 -5 3 -10 19 -10 36 0 16 -5
29 -11 29 -7 0 -8 -11 -4 -30 4 -19 3 -30 -4 -30 -6 0 -11 5 -11 11 0 5 -3 8
-7 6 -5 -3 -7 -51 -7 -106 1 -93 4 -104 28 -136 30 -38 21 -49 -10 -12 -28 32
-44 64 -44 86 0 11 -5 23 -10 26 -8 5 -8 11 0 20 8 9 8 15 0 20 -5 3 -10 0
-10 -8 0 -27 -27 -26 -53 1 -24 26 -25 33 -32 222 -10 289 -6 2352 5 2391 15
50 56 103 103 130 41 23 49 24 312 29 149 3 430 3 625 2 332 -3 358 -5 403
-24z m-3708 -92 c9 -13 18 -47 22 -75 l6 -51 67 0 c36 0 89 -7 116 -15 102
-30 212 -133 250 -233 19 -48 10 -69 -15 -34 -41 58 -75 92 -92 92 -17 0 -16
-4 7 -48 50 -96 35 -217 -26 -217 -24 0 -25 4 -34 76 -8 73 -9 77 -36 82 -18
4 -35 19 -48 41 -12 20 -28 36 -37 36 -19 0 -19 -7 1 -79 18 -64 13 -141 -10
-160 -17 -15 -61 1 -74 26 -5 10 -14 41 -20 69 -6 28 -27 85 -46 127 -47 103
-71 118 -186 116 -54 -1 -85 2 -88 9 -12 36 92 188 160 233 52 35 63 36 83 5z
m1255 -132 c67 -12 140 -65 140 -102 0 -5 -36 -12 -81 -15 -55 -3 -86 -10 -99
-22 -29 -27 -88 -147 -106 -216 -18 -72 -37 -99 -69 -99 -39 0 -48 23 -42 108
3 42 9 87 13 100 11 37 -22 27 -70 -23 -40 -40 -44 -50 -51 -110 -8 -74 -21
-87 -60 -61 -36 24 -39 54 -17 163 11 54 18 100 16 102 -7 7 -45 -32 -76 -76
-55 -81 -67 -37 -16 59 59 110 167 181 303 197 64 7 157 5 215 -5z m-1252
-500 c44 -61 85 -78 177 -70 38 4 104 6 145 6 86 -1 121 17 146 77 l14 33 103
0 104 0 24 -37 c37 -58 73 -69 239 -77 166 -7 188 -1 235 74 l25 40 99 0 c91
0 101 -2 141 -29 48 -32 95 -96 110 -150 5 -20 10 -65 10 -101 0 -146 -52
-241 -165 -303 -37 -20 -57 -22 -253 -25 -248 -5 -291 0 -332 34 -39 33 -38
22 5 -72 l35 -77 -2 -756 -3 -756 -60 -24 c-38 -15 -89 -25 -141 -29 -83 -5
-304 13 -315 26 -12 13 -19 368 -19 1012 l0 645 -260 2 c-294 2 -298 3 -379
82 -42 42 -48 54 -65 130 -33 147 -4 254 94 345 l49 46 104 0 103 0 32 -46z
m-40 -984 l54 0 -6 -282 c-4 -156 -8 -336 -9 -401 -1 -82 -5 -121 -14 -129 -7
-6 -13 -15 -13 -20 0 -17 -30 -40 -45 -34 -11 4 -15 -2 -15 -18 0 -14 -6 -26
-12 -28 -9 -3 -8 -9 5 -22 23 -23 22 -32 -8 -58 -14 -12 -25 -28 -25 -35 0
-35 -83 11 -149 83 -52 57 -128 198 -150 279 -6 22 -11 87 -11 144 0 95 3 113
36 203 42 113 92 196 167 275 51 54 53 55 96 49 24 -3 68 -6 99 -6z m1341 -26
c46 -38 127 -167 163 -259 29 -73 32 -92 36 -217 4 -126 2 -144 -22 -230 -27
-94 -80 -204 -118 -245 -24 -26 -43 -21 -28 8 9 15 7 19 -6 19 -14 0 -14 3 -4
15 14 17 14 17 -15 33 -11 6 -14 12 -7 12 6 0 12 7 12 16 0 9 7 22 16 29 15
11 15 12 -5 18 -11 3 -19 2 -17 -2 3 -4 1 -13 -4 -21 -6 -9 -12 -1 -20 28 -9
27 -17 39 -26 35 -17 -6 -18 2 -4 27 7 13 7 21 0 25 -16 10 -33 -45 -19 -62
10 -11 9 -18 -6 -31 -17 -16 -17 -16 -11 11 4 17 2 27 -5 27 -6 0 -9 6 -6 14
3 8 1 16 -4 18 -14 5 -14 45 -1 86 6 19 7 32 1 32 -5 0 -9 -10 -9 -22 0 -12
-3 -18 -7 -14 -8 8 -16 644 -8 664 2 7 22 12 49 12 33 0 52 -7 75 -26z m463
-589 c50 -97 95 -255 74 -255 -4 0 -23 11 -44 24 -20 14 -57 32 -80 42 -41 16
-43 19 -38 48 3 17 9 80 12 140 l7 109 20 -24 c10 -13 33 -51 49 -84z m-500
-247 c-7 -7 -12 -8 -12 -2 0 14 12 26 19 19 2 -3 -1 -11 -7 -17z m478 -88 c32
-22 62 -49 65 -60 17 -55 -181 -295 -313 -380 -39 -25 -71 -50 -71 -56 -1 -6
8 -23 20 -38 l21 -26 -49 -21 c-26 -11 -62 -27 -80 -35 -47 -21 -59 -17 -29
11 30 28 30 51 0 49 -10 -1 -44 -9 -74 -17 -129 -36 -245 -50 -425 -51 -159
-1 -198 3 -330 28 -82 16 -206 46 -275 68 -277 88 -335 101 -470 102 -114 0
-131 -2 -191 -27 -78 -32 -79 -32 -79 -7 0 29 57 88 109 114 122 61 255 60
481 -3 406 -114 526 -136 715 -128 293 12 520 101 681 269 74 76 145 175 170
233 13 31 16 34 39 25 14 -5 52 -28 85 -50z m977 41 c9 8 13 8 13 1 0 -6 -5
-14 -10 -17 -8 -5 -7 -11 1 -21 17 -21 6 -26 -27 -13 -16 6 -24 13 -18 16 7 2
9 14 7 26 -5 18 -3 20 7 10 10 -9 17 -10 27 -2z m-114 -36 c5 -27 3 -30 -20
-32 -14 0 -29 -7 -34 -15 -7 -10 -9 -9 -9 5 0 16 12 22 34 18 5 -1 6 9 4 23
-3 14 0 27 6 29 14 5 12 8 19 -28z m156 -32 c1 -19 -4 -23 -26 -22 -24 2 -25
2 -5 6 23 5 31 38 10 45 -7 3 -9 11 -3 24 7 18 8 17 15 -6 5 -14 8 -35 9 -47z
m-199 43 c0 -8 -4 -17 -8 -20 -4 -2 -8 4 -8 15 0 10 4 19 8 19 4 0 8 -6 8 -14z
m130 -51 c0 -9 -9 -15 -22 -15 -21 0 -21 0 -2 15 24 18 24 18 24 0z m-250 -5
c0 -5 -4 -10 -10 -10 -5 0 -10 5 -10 10 0 6 5 10 10 10 6 0 10 -4 10 -10z
m347 -12 c-3 -8 -6 -5 -6 6 -1 11 2 17 5 13 3 -3 4 -12 1 -19z m-157 2 c0 -12
-21 -18 -43 -12 -11 3 -14 8 -8 11 16 10 51 11 51 1z m-155 -20 c3 -5 2 -10
-4 -10 -5 0 -13 5 -16 10 -3 6 -2 10 4 10 5 0 13 -4 16 -10z m84 -2 c0 -7 -5
-22 -10 -33 l-9 -20 2 20 c2 11 -1 26 -5 33 -5 8 -3 12 7 12 9 0 16 -6 15 -12z
m141 -8 c0 -5 -5 -10 -11 -10 -5 0 -7 5 -4 10 3 6 8 10 11 10 2 0 4 -4 4 -10z
m67 -57 c-3 -10 -5 -4 -5 12 0 17 2 24 5 18 2 -7 2 -21 0 -30z m-206 -10 c-12
-20 -14 -14 -5 12 4 9 9 14 11 11 3 -2 0 -13 -6 -23z m-216 7 c3 -5 1 -10 -4
-10 -6 0 -11 5 -11 10 0 6 2 10 4 10 3 0 8 -4 11 -10z m181 -17 c-10 -10 -19
5 -10 18 6 11 8 11 12 0 2 -7 1 -15 -2 -18z"/>
<path d="M3300 5552 c-80 -40 -82 -160 -3 -197 42 -20 82 -13 123 21 59 50 47
144 -23 177 -44 21 -54 21 -97 -1z"/>
<path d="M3920 5552 c-88 -44 -76 -174 19 -203 129 -38 199 147 77 205 -43 20
-53 20 -96 -2z"/>
<path d="M3582 5414 c-80 -41 -116 -148 -73 -218 13 -20 39 -42 61 -52 35 -16
39 -21 33 -43 -9 -41 -23 -52 -62 -49 -32 3 -38 8 -55 46 -21 46 -48 55 -66
23 -24 -46 -6 -114 44 -160 37 -35 126 -42 165 -13 27 19 28 19 52 1 32 -25
104 -25 146 1 37 22 73 86 73 128 0 27 -32 82 -48 82 -4 0 -15 -21 -26 -46
-33 -80 -90 -93 -114 -25 -11 32 -5 43 35 55 12 4 34 21 48 37 30 37 34 102 8
156 -35 74 -149 114 -221 77z m129 -75 c16 -16 18 -23 8 -35 -6 -8 -18 -14
-25 -14 -8 0 -14 -4 -14 -10 0 -14 -84 -12 -98 2 -7 7 -12 20 -12 29 0 46 102
67 141 28z"/>
<path d="M3100 5180 c-21 -39 1 -54 104 -71 99 -16 108 -15 119 13 10 28 -15
46 -86 62 -93 22 -124 21 -137 -4z"/>
<path d="M4082 5185 c-100 -18 -104 -20 -100 -52 l3 -28 92 1 c51 1 104 5 118
8 29 7 44 49 25 71 -15 18 -40 18 -138 0z"/>
<path d="M3205 5013 c-95 -41 -99 -44 -91 -77 10 -41 39 -41 127 0 83 39 105
61 94 94 -9 28 -36 24 -130 -17z"/>
<path d="M3980 5030 c-7 -14 -7 -25 1 -38 14 -23 183 -104 202 -96 8 3 20 16
27 30 12 22 11 27 -6 43 -21 21 -167 81 -195 81 -10 0 -23 -9 -29 -20z"/>
<path d="M6415 2710 c3 -5 8 -10 11 -10 2 0 4 5 4 10 0 6 -5 10 -11 10 -5 0
-7 -4 -4 -10z"/>
<path d="M5787 2329 c4 -13 8 -18 11 -10 2 7 -1 18 -6 23 -8 8 -9 4 -5 -13z"/>
<path d="M5615 2330 c3 -5 8 -10 11 -10 2 0 4 5 4 10 0 6 -5 10 -11 10 -5 0
-7 -4 -4 -10z"/>
<path d="M5815 2330 c3 -5 8 -10 11 -10 2 0 4 5 4 10 0 6 -5 10 -11 10 -5 0
-7 -4 -4 -10z"/>
<path d="M5820 2281 c0 -6 4 -13 10 -16 6 -3 7 1 4 9 -7 18 -14 21 -14 7z"/>
<path d="M5620 2271 c0 -5 7 -11 15 -15 8 -3 15 -1 15 3 0 5 -7 11 -15 15 -8
3 -15 1 -15 -3z"/>
<path d="M5768 2261 c-15 -18 -15 -19 2 -24 14 -3 17 1 16 19 0 13 -1 24 -1
24 0 0 -8 -9 -17 -19z"/>
<path d="M5603 2248 c5 -13 1 -18 -11 -18 -14 0 -15 -2 -2 -10 20 -12 37 17
20 33 -10 9 -12 8 -7 -5z"/>
<path d="M5647 2222 c-19 -21 -22 -32 -7 -32 6 0 10 6 10 14 0 8 6 16 13 19 6
2 9 7 6 11 -3 3 -13 -2 -22 -12z"/>
<path d="M5470 2200 c0 -5 7 -10 15 -10 8 0 15 5 15 10 0 6 -7 10 -15 10 -8 0
-15 -4 -15 -10z"/>
<path d="M5587 2183 c-10 -9 -9 -23 2 -23 5 0 11 7 15 15 5 15 -5 20 -17 8z"/>
<path d="M5620 2170 c0 -6 7 -10 15 -10 8 0 15 2 15 4 0 2 -7 6 -15 10 -8 3
-15 1 -15 -4z"/>
<path d="M5667 2173 c-4 -3 -7 -11 -7 -17 0 -6 5 -5 12 2 6 6 9 14 7 17 -3 3
-9 2 -12 -2z"/>
<path d="M5820 2164 c0 -8 5 -12 10 -9 6 3 10 10 10 16 0 5 -4 9 -10 9 -5 0
-10 -7 -10 -16z"/>
<path d="M5710 2161 c0 -5 -3 -18 -7 -28 -6 -17 -6 -17 10 -1 19 18 22 38 7
38 -5 0 -10 -4 -10 -9z"/>
<path d="M5510 2150 c0 -5 9 -14 20 -20 11 -6 19 -14 19 -18 -3 -19 2 -25 10
-13 7 11 2 22 -15 38 -27 25 -34 28 -34 13z"/>
<path d="M5390 2060 c0 -5 -8 -10 -17 -10 -14 0 -13 -3 5 -16 13 -9 26 -13 29
-10 4 3 1 6 -6 6 -8 0 -10 7 -6 20 3 11 4 20 1 20 -3 0 -6 -4 -6 -10z"/>
<path d="M3007 2273 c-4 -3 -7 -19 -7 -34 0 -15 -5 -31 -10 -34 -6 -4 -8 -11
-4 -16 11 -19 36 13 31 40 -3 16 1 30 11 38 15 11 15 12 1 13 -9 0 -19 -3 -22
-7z"/>
<path d="M2925 2100 c-3 -5 -1 -10 4 -10 6 0 11 5 11 10 0 6 -2 10 -4 10 -3 0
-8 -4 -11 -10z"/>
<path d="M2935 2055 c-14 -14 -25 -31 -25 -38 0 -8 3 -8 8 -2 4 6 19 18 35 28
27 17 36 37 17 37 -5 0 -21 -11 -35 -25z"/>
<path d="M4320 2399 c0 -5 5 -7 10 -4 6 3 10 8 10 11 0 2 -4 4 -10 4 -5 0 -10
-5 -10 -11z"/>
<path d="M4276 2313 c-4 -9 -2 -21 4 -27 7 -7 10 -2 10 17 0 31 -5 34 -14 10z"/>
<path d="M4462 1540 c0 -14 2 -19 5 -12 2 6 2 18 0 25 -3 6 -5 1 -5 -13z"/>
<path d="M4400 1530 c0 -5 5 -10 10 -10 6 0 10 5 10 10 0 6 -4 10 -10 10 -5 0
-10 -4 -10 -10z"/>
<path d="M430 5041 c-132 -42 -232 -147 -259 -273 -6 -25 -11 -687 -13 -1628
l-3 -1585 24 -70 c20 -57 35 -81 85 -131 101 -101 82 -98 636 -101 374 -3 480
-1 500 10 l25 13 5 484 5 485 151 5 c144 5 153 7 216 38 82 40 151 113 175
185 14 42 18 100 21 295 5 382 -13 473 -120 587 -37 40 -81 75 -116 92 -57 28
-58 28 -297 31 -132 2 -242 7 -245 12 -3 5 -5 73 -5 152 l0 143 425 5 425 5
59 25 c78 33 148 97 175 159 35 83 43 188 39 494 -5 261 -7 287 -28 345 -30
85 -100 161 -188 204 l-67 33 -785 2 c-728 2 -789 1 -840 -16z m1455 -300 c50
-22 89 -68 127 -146 22 -48 28 -74 28 -130 0 -80 -17 -116 -72 -159 -67 -51
-105 -54 -592 -55 -247 -1 -451 -2 -452 -4 -2 -2 9 -21 24 -43 l27 -39 0 -505
0 -505 -53 -88 c-30 -49 -52 -91 -49 -93 3 -3 36 15 73 39 178 114 317 167
438 167 140 0 210 -39 269 -147 29 -55 44 -131 32 -160 -5 -10 -9 -22 -9 -28
-1 -14 -57 -95 -85 -123 -13 -13 -32 -25 -42 -27 -11 -2 -24 -7 -29 -10 -6 -4
-38 -9 -71 -12 -46 -4 -64 -2 -70 8 -6 9 -9 10 -9 2 0 -10 -219 -19 -379 -15
-30 1 -32 -1 -25 -21 19 -53 13 -474 -6 -462 -5 3 -5 -8 0 -25 8 -29 -2 -42
-15 -20 -10 16 -35 12 -29 -5 5 -11 -1 -15 -22 -16 -16 0 -23 -3 -16 -6 6 -2
9 -10 5 -16 -4 -6 0 -8 10 -4 21 8 22 -6 1 -24 -14 -12 -14 -14 3 -27 17 -14
17 -14 0 -8 -10 3 -25 6 -34 6 -9 0 -13 6 -9 15 3 8 9 23 12 33 5 16 4 16 -9
-1 -11 -14 -16 -15 -20 -5 -3 8 -6 6 -6 -5 -1 -11 -6 -15 -12 -11 -8 4 -9 0
-4 -15 4 -13 2 -21 -5 -21 -6 0 -8 -4 -5 -10 3 -5 0 -10 -8 -10 -15 0 -32 29
-22 38 3 3 5 0 5 -7 0 -7 5 -9 11 -6 6 4 8 14 5 22 -4 9 -2 21 3 27 6 8 6 17
-1 26 -8 12 -9 12 -4 -2 3 -10 1 -20 -4 -23 -6 -4 -10 -1 -10 5 0 6 -5 8 -10
5 -8 -5 -7 -12 2 -23 7 -10 8 -14 4 -10 -5 4 -15 0 -22 -10 -20 -28 -29 -4
-10 28 18 31 5 43 -14 13 -8 -13 -13 -14 -16 -5 -8 18 -27 15 -20 -3 4 -11 -3
-19 -20 -25 -22 -9 -24 -13 -14 -25 10 -12 9 -15 -4 -15 -23 0 -30 24 -15 52
11 21 11 22 -4 10 -9 -8 -18 -23 -20 -35 -3 -18 -5 -17 -12 11 -4 18 -12 35
-16 38 -14 8 -11 -30 3 -44 9 -9 8 -12 -7 -12 -20 -1 -20 -1 -1 -15 10 -8 22
-12 27 -10 4 3 5 -4 2 -15 -5 -19 -6 -19 -19 -3 -12 17 -13 17 -20 -1 -5 -13
-2 -23 9 -31 15 -11 14 -13 -8 -23 -14 -6 -25 -16 -25 -22 0 -5 -7 -10 -15
-10 -20 0 -19 17 3 29 16 9 16 10 -1 17 -12 4 -16 13 -12 25 5 14 2 17 -9 13
-11 -4 -13 -12 -6 -29 6 -17 5 -27 -6 -35 -11 -10 -14 -9 -14 4 0 9 -4 16 -9
16 -4 0 -6 11 -3 25 2 14 0 25 -6 25 -14 0 -13 -118 -18 1301 l-5 1246 21 56
c24 63 90 131 144 146 17 5 301 10 631 10 562 1 603 -1 640 -18z m-915 -2670
c0 -11 -4 -22 -9 -25 -5 -3 -8 5 -7 19 1 29 16 34 16 6z m-250 -23 c-1 -16
-39 -63 -45 -56 -7 7 25 68 36 68 5 0 9 -6 9 -12z m38 -27 c-2 -20 4 -30 20
-34 13 -4 12 -5 -5 -6 -13 0 -27 7 -33 18 -13 25 -13 28 4 28 8 0 15 -3 14 -6z
m112 -1 c0 -5 -2 -10 -4 -10 -3 0 -8 5 -11 10 -3 6 -1 10 4 10 6 0 11 -4 11
-10z m-154 -37 c-10 -10 -19 5 -10 18 6 11 8 11 12 0 2 -7 1 -15 -2 -18z m174
7 c0 -5 -2 -10 -4 -10 -3 0 -8 5 -11 10 -3 6 -1 10 4 10 6 0 11 -4 11 -10z
m-200 -30 c0 -5 -4 -10 -10 -10 -5 0 -10 5 -10 10 0 6 5 10 10 10 6 0 10 -4
10 -10z m-110 -56 c0 -17 4 -23 13 -18 6 4 9 3 4 -1 -4 -5 0 -19 9 -33 22 -34
10 -39 -13 -5 -24 34 -38 83 -23 83 5 0 10 -12 10 -26z m210 -5 c0 -6 -4 -7
-10 -4 -5 3 -10 11 -10 16 0 6 5 7 10 4 6 -3 10 -11 10 -16z"/>
<path d="M936 2225 c4 -8 8 -15 10 -15 2 0 4 7 4 15 0 8 -4 15 -10 15 -5 0 -7
-7 -4 -15z"/>
<path d="M890 2200 c0 -5 5 -10 10 -10 6 0 10 5 10 10 0 6 -4 10 -10 10 -5 0
-10 -4 -10 -10z"/>
<path d="M620 2157 c0 -8 6 -20 14 -26 12 -10 13 -8 9 9 -7 25 -23 37 -23 17z"/>
<path d="M720 2130 c0 -19 3 -21 12 -12 9 9 9 15 0 24 -9 9 -12 7 -12 -12z"/>
<path d="M587 2132 c7 -4 16 -19 22 -32 9 -22 10 -23 10 -4 1 21 -16 44 -33
44 -7 0 -6 -4 1 -8z"/>
<path d="M833 2133 c-15 -5 -17 -23 -4 -23 5 0 11 7 15 15 3 8 4 15 3 14 -1 0
-8 -3 -14 -6z"/>
</g>
</svg>
