<?xml version="1.0" standalone="no"?>
<!DOCTYPE svg PUBLIC "-//W3C//DTD SVG 20010904//EN"
 "http://www.w3.org/TR/2001/REC-SVG-20010904/DTD/svg10.dtd">
<svg version="1.0" xmlns="http://www.w3.org/2000/svg"
 width="1023.000000pt" height="1023.000000pt" viewBox="0 0 1023.000000 1023.000000"
 preserveAspectRatio="xMidYMid meet">
<metadata>
Created by potrace 1.14, written by Peter Selinger 2001-2017
</metadata>
<g transform="translate(0.000000,1023.000000) scale(0.100000,-0.100000)"
fill="#000000" stroke="none">
<path d="M4900 10224 c-430 -29 -684 -66 -1024 -151 -1604 -400 -2913 -1549
-3519 -3088 -525 -1333 -464 -2825 168 -4120 677 -1387 1968 -2405 3475 -2739
1372 -304 2791 -39 3955 740 1163 777 1946 1978 2195 3364 240 1341 -83 2756
-885 3869 -867 1204 -2192 1963 -3680 2106 -155 15 -573 27 -685 19z m594
-1339 c970 -103 1849 -563 2506 -1312 493 -562 804 -1219 905 -1918 136 -940
-70 -1884 -578 -2640 -563 -839 -1377 -1419 -2319 -1650 -476 -117 -1073 -130
-1578 -34 -635 122 -1290 444 -1775 874 -757 673 -1194 1496 -1311 2475 -21
175 -24 594 -5 775 35 345 130 731 257 1047 252 628 796 1306 1369 1708 520
364 1142 600 1765 669 52 6 109 13 125 15 89 10 514 4 639 -9z"/>
<path d="M4850 8680 c-492 -36 -1030 -207 -1505 -478 -603 -345 -1139 -925
-1465 -1587 -110 -223 -174 -403 -239 -667 -132 -533 -141 -1021 -30 -1585 59
-300 155 -577 305 -873 183 -364 394 -652 701 -957 299 -297 608 -518 968
-693 509 -249 1001 -364 1555 -364 666 0 1291 177 1841 522 519 324 944 755
1268 1285 72 118 175 328 230 467 29 74 56 144 61 156 46 117 127 453 154 634
41 289 47 766 12 1020 -107 770 -430 1425 -986 2004 -767 798 -1786 1194
-2870 1116z m236 -174 c20 -28 19 -102 -2 -110 -9 -3 -99 -6 -200 -6 l-184 0
0 53 c0 28 4 57 8 64 10 15 59 20 225 19 125 -1 140 -3 153 -20z m691 -45 c7
-19 19 -31 34 -33 35 -5 35 -28 -1 -41 -22 -8 -33 -20 -37 -40 -8 -40 -20 -42
-27 -3 -5 27 -13 37 -38 45 -26 9 -29 13 -18 26 7 8 19 15 27 15 8 0 19 14 24
30 14 38 22 38 36 1z m-432 -177 c112 -27 202 -79 296 -173 68 -68 94 -104
128 -171 46 -93 81 -236 81 -332 l0 -58 -49 0 -48 0 -6 93 c-6 86 -27 174 -39
162 -3 -3 -3 6 -1 20 3 14 1 25 -4 25 -5 0 -15 16 -23 35 -8 19 -17 35 -22 35
-4 0 -8 6 -8 14 0 17 -82 94 -135 126 -43 27 -69 34 -58 17 4 -6 0 -8 -9 -4
-27 10 -28 -4 -4 -37 73 -98 120 -240 129 -393 l6 -93 -387 0 c-213 0 -584 -2
-825 -5 -390 -5 -438 -4 -444 10 -3 9 -1 64 5 123 17 189 79 318 210 444 75
72 145 115 242 149 58 21 89 24 285 29 329 8 609 1 680 -16z m838 -23 c29 -11
37 -35 25 -78 -11 -43 -47 -65 -107 -67 -45 -1 -52 -4 -73 -36 -30 -44 -54
-50 -69 -16 -45 98 115 238 224 197z m526 -235 c15 -8 43 -32 61 -53 18 -21
90 -98 159 -171 69 -74 127 -139 129 -145 1 -7 -10 -25 -24 -41 -23 -24 -28
-26 -36 -12 -5 9 -14 16 -19 16 -6 0 -3 -7 6 -16 15 -16 14 -19 -17 -52 -18
-19 -44 -46 -58 -58 -24 -22 -25 -22 -28 -3 -2 12 -9 18 -17 16 -14 -6 -68 45
-60 56 3 4 2 5 -2 2 -9 -7 -44 26 -37 37 3 4 1 7 -4 6 -5 -2 -66 52 -136 118
-123 118 -126 123 -126 164 0 109 116 184 209 136z m-3282 -97 c19 -19 -5 -66
-50 -101 -23 -18 -87 -70 -142 -117 l-100 -84 -7 44 c-15 84 41 188 124 230
64 33 156 47 175 28z m403 -299 c0 -49 -4 -90 -8 -90 -5 0 -32 7 -61 16 -88
26 -128 87 -83 127 15 14 80 30 140 36 9 1 12 -23 12 -89z m2238 69 c32 -11
47 -38 40 -75 -5 -25 -47 -53 -105 -68 -49 -13 -51 -13 -57 8 -8 31 -7 141 2
150 8 9 71 1 120 -15z m1289 -113 c15 -8 127 -115 249 -238 385 -389 403 -412
404 -511 0 -53 -18 -103 -57 -160 l-26 -38 79 -80 c43 -44 116 -104 161 -134
85 -56 107 -81 122 -132 10 -35 -11 -95 -31 -91 -7 2 -12 -1 -11 -7 1 -5 -12
-10 -28 -10 -34 0 -38 10 -6 19 12 3 28 15 36 27 l13 22 -27 -21 c-15 -12 -38
-22 -51 -22 -31 0 -79 42 -111 99 -15 25 -30 48 -33 51 -3 3 -21 25 -40 50
-49 64 -170 187 -170 173 0 -7 31 -45 70 -85 38 -40 70 -77 70 -82 0 -5 -30
23 -68 62 -37 40 -70 72 -73 72 -2 0 -22 -9 -44 -20 -60 -31 -140 -27 -196 9
-72 46 -644 629 -664 676 -34 82 1 153 140 280 52 48 112 94 132 101 44 17
119 12 160 -10z m-4248 -62 l70 -37 77 39 c67 34 86 39 143 39 54 0 75 -5 113
-28 68 -39 103 -89 103 -146 1 -25 -5 -52 -12 -59 -7 -7 -13 -30 -13 -51 0
-51 -31 -142 -66 -194 -35 -50 -44 -59 -109 -97 -40 -24 -62 -30 -108 -30 -32
0 -74 7 -93 15 -33 14 -64 13 -104 -2 -27 -10 -34 -12 -75 -21 -40 -8 -57 -7
-149 2 -42 5 -47 4 -36 -9 11 -13 10 -14 -5 -9 -14 6 -16 4 -10 -7 7 -12 6
-12 -7 -1 -9 7 -14 22 -11 35 4 20 3 20 -9 5 -13 -15 -17 -13 -43 20 -67 83
-100 236 -75 341 16 67 78 162 125 191 101 63 184 64 294 4z m3496 -54 c10
-11 13 -20 8 -20 -6 0 -16 7 -23 15 -13 15 -35 21 -26 7 2 -4 -4 -8 -15 -8
-36 0 -16 23 22 25 9 1 24 -8 34 -19z m-743 -35 c15 -15 -36 -235 -54 -235 -4
0 -8 -9 -8 -19 0 -20 -88 -159 -115 -181 -18 -15 -65 1 -65 22 0 9 3 10 8 2
10 -16 52 -28 52 -15 0 6 -4 11 -8 11 -4 0 -8 9 -9 20 -1 13 2 18 9 14 7 -5 9
0 6 14 -4 12 -2 20 3 16 5 -3 9 -12 9 -20 0 -8 5 -14 11 -14 6 0 8 9 4 20 -7
21 10 28 18 8 4 -9 6 -10 6 -1 1 6 -5 18 -12 25 -13 12 -13 20 -1 58 5 13 6
13 14 0 7 -12 10 -9 10 12 0 14 -6 29 -12 32 -7 3 -1 4 15 1 29 -6 33 0 17 25
-6 10 -10 11 -10 3 0 -7 -4 -13 -9 -13 -11 0 -2 38 10 46 5 3 13 -5 18 -18
l10 -23 0 23 c1 12 -7 30 -17 40 -10 10 -16 24 -14 31 2 6 1 23 -2 36 -6 24
-9 25 -91 25 l-85 0 0 -38 c0 -56 -36 -175 -72 -240 -42 -73 -141 -177 -162
-169 -9 4 -15 1 -13 -5 1 -6 -15 -11 -38 -12 -34 -1 -42 3 -62 33 -13 19 -23
49 -23 67 0 19 -5 34 -10 34 -6 0 -8 -11 -4 -25 4 -15 2 -25 -5 -25 -6 0 -11
6 -12 13 0 9 -2 9 -5 0 -3 -7 0 -21 6 -32 7 -15 7 -21 0 -21 -6 0 -13 7 -17
16 -5 13 -9 12 -27 -8 -43 -47 -45 -47 -411 -47 -348 0 -435 6 -508 40 -20 9
-30 9 -40 0 -12 -9 -27 3 -81 59 -93 99 -152 227 -171 373 l-6 47 974 0 c535
0 976 -2 979 -5z m416 -22 c-13 -28 -29 -66 -49 -117 -16 -41 -31 -64 -51 -75
-23 -13 -28 -22 -26 -46 3 -29 2 -30 -48 -33 -41 -2 -54 1 -69 18 -27 30 -10
52 50 67 61 15 80 33 95 90 16 54 54 103 82 103 11 0 18 -3 16 -7z m-521 -129
c-3 -3 -12 -4 -19 -1 -8 3 -5 6 6 6 11 1 17 -2 13 -5z m607 -29 c27 -28 30
-35 15 -35 -10 0 -27 13 -38 29 -38 53 -24 56 23 6z m-175 -184 c52 -73 79
-171 46 -171 -17 0 -37 37 -55 102 -7 26 -23 59 -36 73 l-23 25 24 0 c15 0 31
-11 44 -29z m-3759 11 c0 -8 -37 -45 -72 -71 -16 -12 -18 -11 -18 6 0 31 38
73 66 73 13 0 24 -4 24 -8z m4323 -92 c-27 -12 -43 -26 -44 -37 0 -11 -3 -13
-6 -5 -3 7 2 24 11 37 12 18 25 25 49 25 l32 0 -42 -20z m-3558 -20 c3 -6 -1
-7 -9 -4 -18 7 -21 14 -7 14 6 0 13 -4 16 -10z m2446 -4 c-10 -12 -51 -11 -51
1 0 3 9 3 20 0 11 -3 20 -1 20 4 0 5 5 9 11 9 8 0 8 -4 0 -14z m-1441 -22 c0
5 6 3 13 -3 8 -6 17 -9 20 -6 4 3 5 2 2 -1 -2 -4 6 -15 18 -26 15 -14 11 -12
-13 4 -19 12 -35 22 -35 20 0 -2 -8 0 -17 3 -10 4 -15 12 -12 17 4 6 10 5 15
-3 5 -8 9 -10 9 -5z m-334 -46 c9 -30 -18 -53 -45 -39 -25 14 -27 34 -6 55 19
18 42 11 51 -16z m1434 3 c0 -5 -7 -11 -14 -14 -10 -4 -13 -1 -9 9 6 15 23 19
23 5z m1876 -235 c19 -19 34 -41 34 -49 0 -14 -3 -14 -31 0 -28 14 -284 16
-2411 17 -2617 1 -2424 6 -2416 -60 5 -44 -9 -44 -27 1 -18 41 -8 73 31 104
l27 21 2379 0 2380 0 34 -34z m834 -310 c0 -5 -7 -1 -15 10 -8 10 -14 24 -14
29 0 6 6 1 14 -9 8 -11 15 -24 15 -30z m-5809 -12 c35 -33 37 -65 7 -81 -65
-33 -92 -43 -123 -45 -27 -2 -32 -5 -23 -15 7 -9 7 -13 -1 -13 -7 0 -20 19
-30 41 -23 50 -14 93 26 128 37 32 102 25 144 -15z m1893 -84 c60 -31 111 -95
132 -167 30 -103 -19 -218 -116 -273 l-45 -25 -387 -3 -388 -3 0 -239 0 -238
298 1 c288 2 298 1 338 -20 54 -29 107 -89 129 -147 44 -114 -22 -261 -137
-305 -15 -6 -154 -11 -327 -12 l-301 -2 0 -316 c0 -352 -3 -368 -69 -424 l-33
-27 -184 0 c-205 0 -223 4 -268 63 -13 17 -30 45 -36 61 -8 21 -11 301 -11
960 l-1 929 34 66 c35 69 94 120 162 140 17 5 275 9 596 8 l565 -2 49 -25z
m2003 15 c184 -77 228 -314 81 -434 -54 -44 -90 -50 -300 -51 l-198 0 0 -808
c0 -767 -1 -809 -19 -842 -10 -19 -33 -45 -51 -57 -31 -22 -42 -23 -225 -23
-183 0 -194 1 -225 23 -18 12 -43 40 -54 62 -21 39 -21 51 -24 842 l-2 802
-213 3 c-231 3 -243 6 -304 67 -129 128 -74 352 101 418 23 8 217 12 714 12
591 1 688 -1 719 -14z m1549 0 c142 -42 221 -218 155 -345 -30 -58 -57 -87
-106 -113 -38 -21 -55 -22 -337 -25 l-298 -3 0 -238 0 -238 228 1 c216 1 229
0 268 -21 49 -26 98 -80 119 -130 24 -57 20 -155 -10 -213 -28 -56 -90 -107
-139 -115 -17 -3 -128 -6 -246 -8 l-215 -2 -5 -325 c-5 -305 -6 -327 -26 -360
-11 -19 -36 -45 -54 -58 -34 -23 -40 -23 -232 -20 -223 3 -231 6 -278 89 l-25
44 -3 925 c-2 611 1 941 8 973 18 86 87 163 168 187 15 5 241 9 503 9 391 1
484 -2 525 -14z m454 -60 c13 -14 21 -25 18 -25 -2 0 -15 11 -28 25 -13 14
-21 25 -18 25 2 0 15 -11 28 -25z m-5890 -9 c0 -2 -8 -10 -17 -17 -16 -13 -17
-12 -4 4 13 16 21 21 21 13z m5950 -12 c0 -8 -19 -13 -24 -6 -3 5 1 9 9 9 8 0
15 -2 15 -3z m-5685 -73 c9 -28 -5 -51 -31 -51 -29 0 -46 28 -33 52 13 24 56
23 64 -1z m5796 -257 c19 -25 42 -50 52 -56 10 -5 16 -16 13 -23 -3 -10 0 -12
12 -8 15 6 16 5 2 -12 -10 -13 -11 -16 -2 -11 21 13 69 -39 70 -75 1 -25 -2
-28 -14 -18 -17 14 -17 9 -3 -27 12 -34 19 -380 9 -479 l-7 -70 -2 55 c0 30
-8 68 -16 84 -12 23 -15 64 -13 207 2 99 6 179 11 179 4 0 8 -21 9 -47 l1 -48
4 43 c3 26 -2 55 -11 74 -13 25 -13 34 -4 47 7 9 8 13 4 9 -5 -5 -15 1 -23 12
-8 11 -19 20 -25 20 -7 0 -6 -5 1 -14 10 -11 10 -20 1 -37 -10 -17 -9 -24 1
-31 11 -8 11 -11 1 -15 -7 -2 -18 -11 -26 -18 -7 -8 -16 -11 -20 -8 -3 4 -6
-3 -6 -15 0 -11 -4 -22 -10 -24 -5 -1 -12 -43 -14 -91 -4 -56 -2 -86 4 -82 6
3 10 -1 10 -9 0 -9 -4 -16 -10 -16 -7 0 -10 -172 -10 -495 0 -283 -4 -495 -9
-495 -15 0 -317 322 -337 360 -17 32 -19 65 -22 405 -2 204 0 390 3 415 6 42
18 56 163 203 86 86 161 157 167 157 6 0 27 -21 46 -46z m-6101 -14 c0 -47 -2
-50 -25 -50 l-25 0 1 -435 c0 -279 -4 -441 -10 -452 -7 -13 -10 137 -11 485
l0 502 35 0 35 0 0 -50z m-160 -8 c0 -34 -4 -41 -38 -60 -56 -31 -129 -113
-141 -158 -13 -46 -15 -870 -2 -924 4 -19 12 -46 16 -60 14 -44 -20 -5 -46 53
l-24 52 0 465 c0 463 0 465 23 507 34 65 78 109 134 137 70 35 78 34 78 -12z
m326 9 c51 -30 87 -69 118 -128 35 -69 21 -69 -71 2 -40 30 -77 55 -83 55 -7
0 -10 -145 -10 -436 0 -344 -3 -435 -12 -432 -19 7 -24 968 -6 968 7 0 36 -13
64 -29z m5956 -358 c-7 -66 -14 -69 -11 -5 2 28 6 52 10 52 3 0 4 -21 1 -47z
m-15 -85 c-3 -8 -6 -5 -6 6 -1 11 2 17 5 13 3 -3 4 -12 1 -19z m-3651 -123
c54 -16 119 -68 108 -87 -4 -7 -3 -8 4 -4 7 4 18 -6 27 -25 13 -25 14 -34 4
-43 -9 -8 -10 -8 -5 1 11 20 -13 53 -38 53 -21 0 -22 -3 -18 -54 6 -71 -19
-141 -66 -183 -59 -55 -135 -66 -229 -35 -43 14 -56 24 -70 52 -62 130 12 287
157 331 39 12 72 10 126 -6z m3661 -37 c-3 -7 -5 -2 -5 12 0 14 2 19 5 13 2
-7 2 -19 0 -25z m-2154 -69 c25 -19 55 -94 43 -107 -3 -3 -6 2 -6 11 0 10 -5
17 -11 17 -6 0 -8 -8 -4 -19 3 -11 1 -22 -5 -26 -5 -3 -10 -11 -10 -16 0 -6 5
-7 12 -3 7 4 8 3 4 -4 -4 -6 -13 -9 -21 -5 -10 3 -13 1 -10 -8 4 -10 -3 -14
-19 -14 -13 0 -22 5 -19 11 2 7 -1 15 -8 20 -8 4 -10 3 -5 -4 4 -8 0 -12 -11
-12 -14 0 -15 -2 -5 -9 17 -11 -29 -24 -52 -15 -16 6 -56 81 -56 105 0 24 39
79 63 89 39 16 93 11 120 -11z m2159 -32 c2 -20 -1 -34 -7 -34 -6 0 -9 14 -7
34 2 18 5 33 7 33 2 0 5 -15 7 -33z m-602 -595 c30 -32 66 -65 80 -74 l25 -17
-30 0 c-39 -1 -88 29 -111 68 -22 37 -37 39 -52 6 -6 -13 -30 -36 -53 -50 -23
-15 -43 -35 -46 -45 -7 -25 -29 -32 -44 -14 -10 12 -3 24 42 71 30 31 66 69
81 84 14 16 32 29 40 29 7 0 38 -26 68 -58z m-1602 -51 l-4 -56 -50 -3 -49 -3
25 18 c35 24 48 43 56 80 10 52 26 26 22 -36z m-1342 -73 c-2 -24 -4 -51 -5
-61 -1 -16 -11 -17 -103 -15 l-103 3 -2 30 c0 17 -2 36 -2 43 -1 8 -18 12 -50
12 l-50 0 -7 -45 -6 -45 -60 0 c-51 0 -61 -3 -65 -20 -3 -11 -11 -20 -19 -20
-7 0 -11 -6 -8 -13 3 -8 -2 -14 -10 -14 -11 0 -16 20 -21 79 l-7 78 -53 0 -54
0 -3 -42 -3 -43 -60 -5 -60 -5 -3 -37 c-2 -21 -8 -38 -13 -38 -6 0 -7 5 -4 10
3 6 0 10 -8 10 -18 0 -27 30 -27 98 l0 52 -55 0 -55 0 0 -45 0 -45 -70 0 -70
0 0 60 0 60 530 0 530 0 -4 -42z m2809 -80 c28 -22 61 -85 50 -97 -4 -3 -15 5
-26 19 -11 14 -33 42 -50 63 -34 42 -19 51 26 15z m-5366 -95 c10 -21 22 -52
25 -68 4 -17 15 -45 26 -63 18 -29 24 -32 69 -32 79 0 120 -46 91 -101 -8 -14
-21 -19 -50 -19 -22 0 -40 -4 -40 -10 0 -5 -5 -10 -12 -10 -22 0 11 24 50 37
l37 12 -40 -6 c-22 -4 -47 -6 -55 -6 -44 2 -90 -19 -109 -51 -25 -39 -52 -123
-45 -139 2 -7 -1 -19 -6 -27 -17 -27 -44 3 -67 75 -13 37 -27 73 -33 80 -6 7
-34 16 -63 20 -57 8 -107 44 -107 77 0 32 44 66 93 73 54 8 68 21 102 100 34
76 51 95 86 95 23 0 32 -7 48 -37z m6185 -89 c9 -22 -3 -56 -16 -48 -6 4 -14
0 -19 -7 -6 -10 -9 -11 -9 -1 0 28 -20 9 -25 -25 -28 -178 -40 -223 -96 -338
-85 -176 -228 -308 -393 -365 -67 -23 -302 -72 -323 -68 -12 2 -7 14 18 48 40
52 467 479 552 551 l57 48 -29 33 c-26 29 -31 31 -54 21 -33 -15 -146 -115
-324 -287 -79 -76 -144 -132 -148 -126 -3 6 -7 50 -8 98 -2 82 0 91 33 151
109 202 363 328 666 330 95 1 113 -1 118 -15z m-1006 -46 c17 -17 15 -43 -4
-59 -31 -26 -70 25 -44 56 15 18 32 19 48 3z m-2788 -256 c0 -5 -35 -43 -79
-85 l-79 -77 -575 0 -575 0 -26 31 c-40 48 -33 99 19 127 24 14 1315 17 1315
4z m2705 -17 c14 -13 25 -34 25 -45 0 -33 -29 -80 -54 -90 -14 -5 -445 -9
-983 -9 l-958 -1 -72 79 c-40 44 -73 82 -73 85 0 3 470 6 1045 6 l1046 0 24
-25z m-4430 -19 c102 -46 181 -126 222 -223 14 -36 14 -37 -3 -23 -34 27 -44
38 -44 50 0 6 -4 8 -10 5 -5 -3 -25 9 -43 28 -19 18 -65 49 -103 67 -123 62
-272 52 -388 -25 -31 -20 -56 -40 -56 -44 0 -12 -51 -61 -59 -57 -4 3 -24 6
-44 8 -21 1 -37 6 -37 11 0 20 32 66 77 108 109 104 179 131 328 126 84 -3
111 -8 160 -31z m2090 -50 c46 -24 85 -90 85 -143 l0 -33 -170 0 -170 0 0 35
c0 73 45 135 117 160 45 16 83 10 138 -19z m2139 -317 c108 -115 147 -189 153
-292 4 -62 1 -78 -19 -116 -13 -25 -29 -46 -35 -48 -6 -2 -13 17 -16 44 -14
121 -86 264 -136 271 -29 5 -28 -21 9 -166 16 -64 32 -144 36 -176 l7 -59 -28
7 c-63 16 -130 86 -169 175 -27 60 -28 70 -23 170 5 114 28 196 73 264 31 47
35 45 148 -74z m-929 67 c18 -28 17 -82 -2 -79 -7 2 -10 -4 -6 -13 5 -14 3
-15 -18 -4 -20 11 -22 11 -12 -1 9 -11 7 -14 -12 -15 -51 -3 -79 66 -45 109
28 36 73 37 95 3z m-2563 -23 c10 -9 18 -21 18 -26 0 -6 -3 -8 -6 -4 -9 9 -61
-20 -72 -39 -12 -22 -32 -9 -32 19 0 56 54 85 92 50z m2171 -17 c61 -41 74
-111 28 -157 l-29 -29 -945 0 -945 0 -26 31 c-51 60 -17 150 64 169 19 4 438
7 930 7 861 -2 896 -3 923 -21z m897 -76 c16 -16 18 -25 10 -40 -18 -34 -70
-19 -70 20 0 17 18 40 32 40 4 0 17 -9 28 -20z m-3440 -210 c0 -33 -3 -40 -20
-40 -54 0 -136 -44 -197 -107 -62 -62 -98 -78 -109 -48 -16 40 122 180 208
214 29 11 68 20 86 20 31 1 32 0 32 -39z m233 20 c91 -34 225 -175 215 -226
-2 -14 -11 -10 -48 19 -136 110 -153 121 -213 137 -61 17 -62 18 -65 53 -3 35
-2 37 27 37 17 0 54 -9 84 -20z m2197 -100 c21 -47 50 -114 66 -149 26 -58 27
-64 11 -75 -19 -15 -459 -27 -944 -26 -297 0 -333 -3 -333 -22 0 -5 5 -6 10
-3 6 4 5 -4 -1 -19 -7 -14 -16 -23 -22 -19 -5 3 -4 9 4 14 7 4 10 11 7 14 -24
25 -29 -19 -27 -276 1 -194 -2 -273 -11 -284 -15 -18 -57 -27 -133 -27 -34 0
-73 -5 -87 -10 -24 -9 -24 -10 -6 -24 11 -8 45 -15 75 -16 50 -1 52 -2 14 -5
-24 -2 -43 -9 -43 -15 0 -15 -71 -2 -82 14 -6 8 -7 5 -3 -10 6 -21 4 -23 -17
-18 -12 3 -17 3 -10 0 6 -3 12 -19 12 -35 0 -25 -4 -29 -29 -29 -29 0 -50 -28
-37 -49 3 -5 2 -20 -3 -33 -10 -26 -18 -14 -24 37 -3 28 -4 26 -13 -15 -10
-44 -8 -72 5 -52 3 5 17 9 31 8 21 -1 24 3 21 24 -8 51 -6 55 24 60 46 8 99
60 60 60 -8 0 -15 5 -15 10 0 6 7 10 15 10 8 0 15 -4 15 -10 0 -5 11 -10 25
-10 18 0 25 -5 25 -20 0 -13 7 -20 19 -20 19 0 37 -28 25 -39 -4 -3 -9 0 -11
7 -3 6 -16 12 -30 12 -18 0 -24 -4 -19 -15 18 -44 16 -49 -8 -22 -31 34 -39
34 -53 0 l-10 -28 -11 25 -10 25 -8 -33 c-4 -19 -13 -36 -20 -39 -8 -3 -14
-10 -14 -15 0 -6 7 -7 16 -4 8 3 25 -3 37 -15 l22 -20 -30 3 c-16 2 -37 10
-45 18 -24 24 -48 20 -55 -9 -5 -21 1 -32 38 -67 24 -23 62 -47 83 -53 26 -7
221 -11 576 -11 295 0 543 -3 552 -6 11 -4 16 -19 16 -50 l0 -45 -582 3 c-575
3 -584 3 -630 25 -67 31 -143 106 -174 170 -37 80 -46 196 -42 594 4 390 -7
334 107 573 l60 126 791 -2 792 -3 38 -85z m476 10 c49 -21 82 -69 91 -135 7
-55 -2 -65 -62 -65 -63 0 -115 36 -147 99 -27 53 -36 110 -21 125 11 11 91 -3
139 -24z m479 -12 c-14 -66 -63 -141 -104 -162 -15 -8 -54 -18 -88 -21 -73 -9
-83 4 -46 61 l25 39 -30 -32 c-35 -36 -44 -34 -32 8 24 83 111 139 218 139
l64 0 -7 -32z m1155 -44 c0 -26 -22 -97 -35 -114 -7 -8 -10 -21 -8 -27 3 -7 0
-13 -5 -13 -5 0 -13 -12 -17 -27 -6 -27 -7 -28 -22 -8 -14 19 -15 18 -11 -12
4 -26 -2 -40 -29 -69 -18 -21 -33 -33 -33 -28 0 5 -5 2 -10 -6 -7 -10 -10 -11
-10 -2 0 7 7 15 15 18 8 4 12 10 9 15 -3 5 2 6 10 3 12 -5 16 1 16 21 0 15 4
24 10 20 6 -3 10 1 10 9 0 10 -6 13 -15 10 -8 -4 -15 -12 -15 -20 0 -8 -7 -14
-15 -14 -8 0 -15 -7 -15 -15 0 -9 -6 -18 -14 -21 -8 -3 -12 -12 -10 -19 3 -8
-6 -19 -23 -27 -15 -8 -27 -21 -26 -29 2 -10 -1 -9 -9 3 -11 15 -13 15 -27 0
-24 -26 -112 -63 -143 -60 -26 2 -26 3 -11 31 8 16 73 88 144 159 71 72 129
134 129 139 0 37 -160 -43 -243 -121 -98 -91 -148 -192 -173 -344 -8 -54 -22
-88 -33 -81 -35 21 -38 149 -6 263 42 145 142 271 265 331 81 39 129 49 253
50 84 1 97 -1 97 -15z m-4576 -109 c47 -36 53 -49 37 -74 -7 -11 -23 -4 -75
34 -66 49 -72 56 -59 68 15 16 53 5 97 -28z m294 18 c-2 -10 -32 -37 -66 -62
-58 -40 -65 -42 -80 -28 -14 15 -14 18 4 38 51 57 150 93 142 52z m1230 -140
c-16 -2 -40 -2 -55 0 -16 2 -3 4 27 4 30 0 43 -2 28 -4z m100 0 c-10 -2 -28
-2 -40 0 -13 2 -5 4 17 4 22 1 32 -1 23 -4z m1271 -33 c88 -27 110 -38 152
-77 l48 -45 32 26 c18 15 55 39 82 53 56 28 110 27 167 -2 47 -24 38 -42 -27
-56 -71 -15 -126 -42 -177 -85 -22 -19 -47 -34 -57 -34 -10 0 -45 18 -78 40
-78 52 -104 62 -171 62 -69 1 -131 -25 -187 -80 -55 -54 -82 -108 -105 -212
-10 -46 -25 -91 -34 -100 -14 -13 -19 -11 -55 27 -34 37 -39 48 -39 89 0 94
48 226 112 305 39 48 110 99 162 115 47 14 38 16 175 -26z m-1622 -297 c-2
-32 -3 -6 -3 57 0 63 1 89 3 58 2 -32 2 -84 0 -115z m1517 41 c37 -37 3 -104
-54 -104 -54 0 -75 64 -34 105 20 20 68 19 88 -1z m-49 -174 c0 -20 -6 -26
-27 -28 -24 -3 -28 0 -28 21 0 30 9 39 35 35 14 -2 20 -10 20 -28z m-1479 -88
c-12 -11 -14 4 -8 53 l7 50 3 -49 c2 -26 1 -51 -2 -54z m144 46 c0 -18 -2 -20
-9 -8 -6 8 -7 18 -5 22 9 14 14 9 14 -14z m-156 -82 c-3 -9 -16 -16 -28 -15
-14 0 -16 2 -6 6 8 3 19 12 23 20 11 19 19 11 11 -11z m41 -16 c3 -6 -1 -7 -9
-4 -18 7 -21 14 -7 14 6 0 13 -4 16 -10z m102 4 c-3 -3 -12 -4 -19 -1 -8 3 -5
6 6 6 11 1 17 -2 13 -5z m-100 -66 c-3 -8 -6 -5 -6 6 -1 11 2 17 5 13 3 -3 4
-12 1 -19z m-868 -2 c14 -16 -1 -28 -51 -40 -32 -7 -37 7 -11 36 19 22 46 23
62 4z m906 -16 c-3 -5 -11 -10 -16 -10 -6 0 -7 5 -4 10 3 6 11 10 16 10 6 0 7
-4 4 -10z m-112 -26 c-7 -19 -10 -18 -16 5 -3 13 -1 18 9 14 7 -2 10 -11 7
-19z m-90 -4 c4 -14 0 -20 -12 -20 -23 0 -31 9 -24 26 8 21 30 17 36 -6z m-68
-70 c3 -5 1 -10 -4 -10 -6 0 -11 5 -11 10 0 6 2 10 4 10 3 0 8 -4 11 -10z m81
-5 c-30 -16 -43 -14 -31 4 3 6 18 11 33 11 l27 0 -29 -15z m89 -5 c3 -5 1 -10
-4 -10 -6 0 -11 5 -11 10 0 6 2 10 4 10 3 0 8 -4 11 -10z m-145 -24 c0 -2 -7
-6 -15 -10 -8 -3 -15 -1 -15 4 0 6 7 10 15 10 8 0 15 -2 15 -4z"/>
<path d="M6648 7923 c-28 -7 -22 -47 9 -64 21 -11 27 -11 31 -1 2 7 10 19 18
27 12 12 11 16 -8 29 -12 9 -25 15 -28 15 -3 -1 -13 -3 -22 -6z"/>
<path d="M6940 7651 c0 -10 19 -25 25 -20 1 2 -3 10 -11 17 -8 7 -14 8 -14 3z"/>
<path d="M6818 7581 c23 -23 39 -47 36 -53 -4 -6 -3 -8 4 -4 6 3 18 -1 26 -10
9 -8 16 -12 16 -7 0 9 -58 66 -100 97 -14 11 -6 0 18 -23z"/>
<path d="M7685 6547 c9 -5 26 -7 38 -5 12 1 27 -1 33 -4 6 -4 19 -2 29 6 15
11 8 13 -49 12 -41 0 -60 -3 -51 -9z"/>
<path d="M7735 6530 c-3 -5 -1 -10 4 -10 6 0 11 5 11 10 0 6 -2 10 -4 10 -3 0
-8 -4 -11 -10z"/>
<path d="M8150 6300 c0 -5 7 -10 16 -10 8 0 12 5 9 10 -3 6 -10 10 -16 10 -5
0 -9 -4 -9 -10z"/>
<path d="M5760 7356 c0 -31 6 -34 13 -6 3 11 1 23 -4 26 -5 3 -9 -6 -9 -20z"/>
<path d="M5800 7266 c0 -8 4 -17 9 -20 5 -4 7 3 4 14 -6 23 -13 26 -13 6z"/>
<path d="M5310 7200 c0 -5 5 -10 11 -10 5 0 7 5 4 10 -3 6 -8 10 -11 10 -2 0
-4 -4 -4 -10z"/>
<path d="M5246 7165 c-3 -9 0 -15 8 -15 20 0 29 -30 11 -36 -8 -4 -15 -12 -15
-20 0 -8 -9 -14 -20 -14 -11 0 -20 5 -20 12 0 9 -3 9 -12 0 -8 -8 -5 -16 13
-31 29 -24 39 -26 39 -6 0 8 5 15 10 15 6 0 10 5 10 12 0 7 12 24 26 39 25 26
26 29 10 45 -9 9 -20 13 -24 9 -4 -4 -1 -10 6 -12 14 -5 17 -33 3 -33 -5 0
-12 11 -15 25 -7 28 -21 33 -30 10z"/>
<path d="M5750 7169 c0 -4 8 -13 17 -20 14 -12 15 -12 9 0 -5 8 -3 16 5 22 10
6 7 8 -9 6 -12 0 -22 -4 -22 -8z"/>
<path d="M5210 7131 c0 -6 4 -13 10 -16 6 -3 7 1 4 9 -7 18 -14 21 -14 7z"/>
<path d="M5720 7124 c0 -8 4 -13 9 -10 5 4 11 2 13 -3 1 -5 10 -2 18 7 13 14
12 15 -3 9 -9 -3 -17 -2 -17 3 0 6 -4 10 -10 10 -5 0 -10 -7 -10 -16z"/>
<path d="M5680 7034 c0 -8 5 -12 10 -9 6 4 8 11 5 16 -9 14 -15 11 -15 -7z"/>
<path d="M4136 6985 c4 -8 11 -15 16 -15 6 0 5 6 -2 15 -7 8 -14 15 -16 15 -2
0 -1 -7 2 -15z"/>
<path d="M5230 6970 c0 -5 5 -10 10 -10 6 0 10 5 10 10 0 6 -4 10 -10 10 -5 0
-10 -4 -10 -10z"/>
<path d="M8360 5730 c0 -5 9 -14 20 -20 11 -6 20 -7 20 -3 0 5 -9 14 -20 21
-11 7 -20 8 -20 2z"/>
<path d="M8393 5400 c0 -25 2 -35 4 -22 2 12 2 32 0 45 -2 12 -4 2 -4 -23z"/>
<path d="M6111 5060 c-15 -13 -18 -20 -9 -20 8 0 23 9 33 20 23 26 7 25 -24 0z"/>
<path d="M6015 5010 c3 -5 8 -10 11 -10 2 0 4 5 4 10 0 6 -5 10 -11 10 -5 0
-7 -4 -4 -10z"/>
<path d="M1968 3983 c12 -2 30 -2 40 0 9 3 -1 5 -23 4 -22 0 -30 -2 -17 -4z"/>
<path d="M3990 1993 c0 -15 29 -49 30 -35 0 7 -7 20 -15 28 -8 9 -15 11 -15 7z"/>
</g>
</svg>
